<?xml version="1.0" encoding="iso-8859-1"?>
<!-- Generator: Adobe Illustrator 19.0.0, SVG Export Plug-In . SVG Version: 6.00 Build 0)  -->
<svg version="1.1" id="Capa_1" xmlns="http://www.w3.org/2000/svg" xmlns:xlink="http://www.w3.org/1999/xlink" x="0px" y="0px"
	 viewBox="0 0 512 512" style="enable-background:new 0 0 512 512; fill: white;" xml:space="preserve">
<g>
	<g>
		<path d="M22.491,24.84H7.52C3.366,24.84,0,28.206,0,32.36v14.038c0,4.154,3.366,7.52,7.52,7.52s7.52-3.367,7.52-7.521V39.88h7.451
			c4.154,0,7.52-3.366,7.52-7.52S26.645,24.84,22.491,24.84z"/>
	</g>
</g>
<g>
	<g>
		<path d="M504.48,24.84h-14.971c-4.154,0-7.52,3.366-7.52,7.52s3.366,7.52,7.52,7.52h7.451v6.518c0,4.154,3.366,7.52,7.52,7.52
			s7.52-3.367,7.52-7.521V32.36C512,28.206,508.634,24.84,504.48,24.84z"/>
	</g>
</g>
<g>
	<g>
		<path d="M22.491,464.187H15.04v-6.517c0-4.154-3.366-7.52-7.52-7.52S0,453.516,0,457.67v14.037c0,4.154,3.366,7.52,7.52,7.52
			h14.971c4.154,0,7.52-3.366,7.52-7.52S26.645,464.187,22.491,464.187z"/>
	</g>
</g>
<g>
	<g>
		<path d="M504.48,450.15c-4.154,0-7.52,3.366-7.52,7.52v6.517h-7.451c-4.154,0-7.52,3.366-7.52,7.52s3.366,7.52,7.52,7.52h14.971
			c4.154,0,7.52-3.366,7.52-7.52V457.67C512,453.516,508.634,450.15,504.48,450.15z"/>
	</g>
</g>
<g>
	<g>
		<path d="M256.088,131.071c-4.154,0-7.52,3.366-7.52,7.52v30.08c0,4.154,3.366,7.52,7.52,7.52s7.52-3.366,7.52-7.52v-30.08
			C263.608,134.437,260.242,131.071,256.088,131.071z"/>
	</g>
</g>
<g>
	<g>
		<path d="M454.659,344.719v-93.231c0-4.154-3.366-7.52-7.52-7.52s-7.52,3.366-7.52,7.52v93.231
			c-5.168,1.313-9.81,3.951-13.554,7.523l-21.633-10.63c-3.729-1.831-8.235-0.294-10.066,3.433
			c-1.831,3.728-0.295,8.234,3.433,10.066l20.23,9.941c-0.936,2.929-1.446,6.047-1.446,9.283c0,1.462,0.11,2.898,0.309,4.306
			L279.995,437.61c-4.099-5.149-9.818-8.952-16.384-10.621v-137.87c0.825,0.294,1.674,0.437,2.513,0.437
			c2.777,0,5.448-1.545,6.755-4.206c1.831-3.728,0.295-8.234-3.433-10.066l-5.836-2.868v-19.971
			c13.222-3.361,23.032-15.363,23.032-29.616c0-1.702-0.146-3.369-0.415-4.996l136.823-59.956
			c4.112,5.266,9.903,9.158,16.567,10.851v28.615c0,4.154,3.366,7.52,7.52,7.52s7.52-3.366,7.52-7.52v-28.615
			c13.223-3.359,23.035-15.363,23.035-29.616c0-16.848-13.707-30.555-30.555-30.555c-9.777,0-18.491,4.622-24.087,11.79
			L286.229,60.392c0.269-1.627,0.415-3.294,0.415-4.996c0-16.848-13.707-30.556-30.556-30.556
			c-16.848,0-30.555,13.707-30.555,30.556c0,1.703,0.147,3.371,0.416,4.999L88.996,120.408c-5.595-7.202-14.33-11.85-24.135-11.85
			c-16.848,0-30.555,13.707-30.555,30.555c0,14.319,9.904,26.364,23.22,29.659v175.904c-13.316,3.294-23.22,15.34-23.22,29.659
			c0,16.848,13.707,30.556,30.555,30.556c10.055,0,18.989-4.884,24.56-12.403l35.646,15.353c0.969,0.417,1.978,0.615,2.971,0.615
			c2.913,0,5.685-1.703,6.911-4.547c1.642-3.814-0.118-8.239-3.932-9.882l-35.9-15.463c0.192-1.383,0.299-2.793,0.299-4.229
			c0-3.207-0.499-6.299-1.42-9.205l20.389-10.019c3.728-1.832,5.264-6.338,3.433-10.066c-1.831-3.727-6.338-5.263-10.066-3.433
			l-21.755,10.69c-3.71-3.56-8.308-6.2-13.432-7.536V168.682c6.612-1.724,12.353-5.617,16.43-10.865l136.953,60.013
			c-0.269,1.628-0.416,3.296-0.416,4.999c0,14.255,9.814,26.26,23.039,29.618v19.97l-5.835,2.867
			c-3.728,1.832-5.264,6.338-3.433,10.066c1.308,2.66,3.978,4.206,6.755,4.206c0.839,0,1.688-0.142,2.512-0.436v137.867
			c-6.567,1.667-12.288,5.47-16.388,10.619l-52.361-22.554c-3.813-1.644-8.239,0.117-9.881,3.931
			c-1.643,3.814,0.116,8.238,3.931,9.881l52.127,22.454c-0.301,1.718-0.467,3.482-0.467,5.286c0,16.848,13.707,30.556,30.555,30.556
			c16.849,0,30.556-13.708,30.556-30.556c0-1.802-0.166-3.565-0.467-5.282l136.444-58.773c5.574,7.485,14.489,12.343,24.518,12.343
			c16.847,0,30.555-13.707,30.555-30.556C477.694,360.082,467.882,348.079,454.659,344.719z M447.139,123.598
			c8.555,0,15.515,6.96,15.515,15.515c0,8.555-6.96,15.515-15.515,15.515s-15.515-6.96-15.515-15.515
			S438.584,123.598,447.139,123.598z M80.376,374.335c0,8.556-6.96,15.516-15.515,15.516s-15.515-6.96-15.515-15.516
			c0-8.555,6.96-15.515,15.515-15.515C73.416,358.82,80.376,365.78,80.376,374.335z M79.199,145.026
			c-0.038,0.08-0.083,0.155-0.118,0.237c-0.025,0.057-0.042,0.116-0.066,0.174c-2.427,5.408-7.852,9.191-14.153,9.191
			c-8.555,0-15.515-6.96-15.515-15.515s6.96-15.515,15.515-15.515s15.515,6.96,15.515,15.515
			C80.376,141.207,79.954,143.202,79.199,145.026z M256.088,39.88c8.556,0,15.516,6.96,15.516,15.516
			c0,8.555-6.96,15.515-15.516,15.515c-8.555,0-15.515-6.96-15.515-15.515C240.573,46.84,247.533,39.88,256.088,39.88z
			 M232.002,204.063L95.014,144.035c0.261-1.603,0.402-3.246,0.402-4.922c0-1.676-0.141-3.319-0.402-4.922l136.988-60.028
			c4.112,5.265,9.903,9.157,16.566,10.85v23.499c0,4.154,3.366,7.52,7.52,7.52s7.52-3.366,7.52-7.52v-23.5
			c6.665-1.693,12.457-5.586,16.569-10.853L417,134.116c-0.269,1.627-0.415,3.295-0.415,4.997c0,1.702,0.146,3.37,0.416,4.997
			l-136.823,59.956c-4.762-6.1-11.781-10.351-19.794-11.483c-1.218-0.85-2.697-1.352-4.295-1.352s-3.077,0.502-4.295,1.352
			C243.782,193.715,236.764,197.965,232.002,204.063z M240.573,222.83c0-8.555,6.96-15.515,15.515-15.515
			c8.556,0,15.516,6.96,15.516,15.515c0,8.556-6.96,15.516-15.516,15.516C247.533,238.346,240.573,231.386,240.573,222.83z
			 M256.088,472.12c-8.555,0-15.515-6.96-15.515-15.516c0-8.555,6.96-15.515,15.515-15.515c8.556,0,15.516,6.96,15.516,15.515
			C271.604,465.16,264.644,472.12,256.088,472.12z M447.139,389.851c-6.264,0-11.66-3.739-14.108-9.097
			c-0.079-0.255-0.17-0.507-0.278-0.758c-0.053-0.123-0.116-0.237-0.175-0.355c-0.606-1.659-0.954-3.44-0.954-5.306
			c0-2.756,0.73-5.342,1.996-7.587c0.488-0.525,0.91-1.127,1.242-1.804c0.022-0.046,0.038-0.093,0.06-0.139
			c2.842-3.635,7.255-5.985,12.217-5.985h0.001c8.555,0,15.514,6.96,15.514,15.515C462.654,382.891,455.694,389.851,447.139,389.851
			z"/>
	</g>
</g>
<g>
	<g>
		<path d="M225.806,291.983c-1.831-3.727-6.338-5.263-10.066-3.433l-26.997,13.266c-3.728,1.832-5.264,6.338-3.433,10.066
			c1.307,2.66,3.979,4.205,6.755,4.205c1.113,0,2.244-0.249,3.311-0.772l26.997-13.266
			C226.101,300.217,227.637,295.711,225.806,291.983z"/>
	</g>
</g>
<g>
	<g>
		<path d="M171.812,318.514c-1.832-3.727-6.34-5.264-10.066-3.433l-26.998,13.266c-3.728,1.832-5.264,6.338-3.433,10.066
			c1.307,2.66,3.977,4.205,6.755,4.205c1.113,0,2.244-0.249,3.311-0.772l26.998-13.266
			C172.107,326.748,173.643,322.241,171.812,318.514z"/>
	</g>
</g>
<g>
	<g>
		<path d="M323.442,301.816l-26.997-13.266c-3.729-1.831-8.235-0.294-10.066,3.433c-1.831,3.728-0.295,8.234,3.433,10.066
			l26.997,13.266c1.067,0.524,2.197,0.772,3.311,0.772c2.777,0,5.448-1.545,6.755-4.205
			C328.706,308.154,327.17,303.648,323.442,301.816z"/>
	</g>
</g>
<g>
	<g>
		<path d="M377.436,328.347l-26.997-13.265c-3.729-1.83-8.235-0.294-10.066,3.433c-1.831,3.728-0.295,8.234,3.433,10.066
			l26.997,13.265c1.067,0.524,2.197,0.772,3.311,0.772c2.777,0,5.448-1.545,6.755-4.205
			C382.7,334.685,381.164,330.179,377.436,328.347z"/>
	</g>
</g>
<g>
</g>
<g>
</g>
<g>
</g>
<g>
</g>
<g>
</g>
<g>
</g>
<g>
</g>
<g>
</g>
<g>
</g>
<g>
</g>
<g>
</g>
<g>
</g>
<g>
</g>
<g>
</g>
<g>
</g>
</svg>
